<svg xmlns="http://www.w3.org/2000/svg" xmlns:xlink="http://www.w3.org/1999/xlink" width="500" zoomAndPan="magnify" viewBox="0 0 375 374.999991" height="500" preserveAspectRatio="xMidYMid meet" version="1.0"><defs><g/><radialGradient gradientTransform="matrix(1, 0, 0, 1, 0.0000045, 0)" gradientUnits="userSpaceOnUse" r="530.330095" cx="0" id="11edac31fc" cy="0" fx="0" fy="0"><stop stop-opacity="1" stop-color="rgb(0.00915527%, 0.105286%, 0.140381%)" offset="0"/><stop stop-opacity="1" stop-color="rgb(0.0289917%, 0.315857%, 0.421143%)" offset="0.00390625"/><stop stop-opacity="1" stop-color="rgb(0.0488281%, 0.526428%, 0.70343%)" offset="0.0078125"/><stop stop-opacity="1" stop-color="rgb(0.0686646%, 0.738525%, 0.985718%)" offset="0.0117188"/><stop stop-opacity="1" stop-color="rgb(0.088501%, 0.949097%, 1.268005%)" offset="0.015625"/><stop stop-opacity="1" stop-color="rgb(0.108337%, 1.161194%, 1.550293%)" offset="0.0195312"/><stop stop-opacity="1" stop-color="rgb(0.128174%, 1.371765%, 1.831055%)" offset="0.0234375"/><stop stop-opacity="1" stop-color="rgb(0.14801%, 1.583862%, 2.113342%)" offset="0.0273438"/><stop stop-opacity="1" stop-color="rgb(0.167847%, 1.794434%, 2.39563%)" offset="0.03125"/><stop stop-opacity="1" stop-color="rgb(0.187683%, 2.006531%, 2.677917%)" offset="0.0351562"/><stop stop-opacity="1" stop-color="rgb(0.20752%, 2.217102%, 2.960205%)" offset="0.0390625"/><stop stop-opacity="1" stop-color="rgb(0.227356%, 2.429199%, 3.242493%)" offset="0.0429688"/><stop stop-opacity="1" stop-color="rgb(0.247192%, 2.639771%, 3.523254%)" offset="0.046875"/><stop stop-opacity="1" stop-color="rgb(0.267029%, 2.851868%, 3.805542%)" offset="0.0507812"/><stop stop-opacity="1" stop-color="rgb(0.286865%, 3.062439%, 4.08783%)" offset="0.0546875"/><stop stop-opacity="1" stop-color="rgb(0.306702%, 3.274536%, 4.370117%)" offset="0.0585938"/><stop stop-opacity="1" stop-color="rgb(0.326538%, 3.485107%, 4.652405%)" offset="0.0625"/><stop stop-opacity="1" stop-color="rgb(0.3479%, 3.697205%, 4.934692%)" offset="0.0664062"/><stop stop-opacity="1" stop-color="rgb(0.367737%, 3.907776%, 5.215454%)" offset="0.0703125"/><stop stop-opacity="1" stop-color="rgb(0.387573%, 4.119873%, 5.497742%)" offset="0.0742188"/><stop stop-opacity="1" stop-color="rgb(0.40741%, 4.330444%, 5.780029%)" offset="0.078125"/><stop stop-opacity="1" stop-color="rgb(0.427246%, 4.542542%, 6.062317%)" offset="0.0820312"/><stop stop-opacity="1" stop-color="rgb(0.447083%, 4.753113%, 6.344604%)" offset="0.0859375"/><stop stop-opacity="1" stop-color="rgb(0.466919%, 4.96521%, 6.626892%)" offset="0.0898438"/><stop stop-opacity="1" stop-color="rgb(0.486755%, 5.175781%, 6.907654%)" offset="0.09375"/><stop stop-opacity="1" stop-color="rgb(0.506592%, 5.387878%, 7.189941%)" offset="0.0976562"/><stop stop-opacity="1" stop-color="rgb(0.526428%, 5.59845%, 7.472229%)" offset="0.101562"/><stop stop-opacity="1" stop-color="rgb(0.546265%, 5.810547%, 7.754517%)" offset="0.105469"/><stop stop-opacity="1" stop-color="rgb(0.566101%, 6.021118%, 8.036804%)" offset="0.109375"/><stop stop-opacity="1" stop-color="rgb(0.585938%, 6.233215%, 8.319092%)" offset="0.113281"/><stop stop-opacity="1" stop-color="rgb(0.605774%, 6.443787%, 8.599854%)" offset="0.117188"/><stop stop-opacity="1" stop-color="rgb(0.62561%, 6.655884%, 8.882141%)" offset="0.121094"/><stop stop-opacity="1" stop-color="rgb(0.645447%, 6.866455%, 9.164429%)" offset="0.125"/><stop stop-opacity="1" stop-color="rgb(0.665283%, 7.078552%, 9.446716%)" offset="0.128906"/><stop stop-opacity="1" stop-color="rgb(0.68512%, 7.289124%, 9.729004%)" offset="0.132812"/><stop stop-opacity="1" stop-color="rgb(0.706482%, 7.501221%, 10.011292%)" offset="0.136719"/><stop stop-opacity="1" stop-color="rgb(0.726318%, 7.711792%, 10.292053%)" offset="0.140625"/><stop stop-opacity="1" stop-color="rgb(0.746155%, 7.923889%, 10.574341%)" offset="0.144531"/><stop stop-opacity="1" stop-color="rgb(0.765991%, 8.13446%, 10.856628%)" offset="0.148438"/><stop stop-opacity="1" stop-color="rgb(0.785828%, 8.346558%, 11.138916%)" offset="0.152344"/><stop stop-opacity="1" stop-color="rgb(0.805664%, 8.557129%, 11.421204%)" offset="0.15625"/><stop stop-opacity="1" stop-color="rgb(0.8255%, 8.769226%, 11.703491%)" offset="0.160156"/><stop stop-opacity="1" stop-color="rgb(0.845337%, 8.979797%, 11.984253%)" offset="0.164062"/><stop stop-opacity="1" stop-color="rgb(0.865173%, 9.191895%, 12.266541%)" offset="0.167969"/><stop stop-opacity="1" stop-color="rgb(0.88501%, 9.402466%, 12.548828%)" offset="0.171875"/><stop stop-opacity="1" stop-color="rgb(0.904846%, 9.614563%, 12.831116%)" offset="0.175781"/><stop stop-opacity="1" stop-color="rgb(0.924683%, 9.825134%, 13.113403%)" offset="0.179688"/><stop stop-opacity="1" stop-color="rgb(0.944519%, 10.037231%, 13.395691%)" offset="0.183594"/><stop stop-opacity="1" stop-color="rgb(0.964355%, 10.247803%, 13.676453%)" offset="0.1875"/><stop stop-opacity="1" stop-color="rgb(0.984192%, 10.4599%, 13.95874%)" offset="0.191406"/><stop stop-opacity="1" stop-color="rgb(1.004028%, 10.670471%, 14.241028%)" offset="0.195312"/><stop stop-opacity="1" stop-color="rgb(1.023865%, 10.882568%, 14.523315%)" offset="0.199219"/><stop stop-opacity="1" stop-color="rgb(1.043701%, 11.09314%, 14.805603%)" offset="0.203125"/><stop stop-opacity="1" stop-color="rgb(1.065063%, 11.305237%, 15.087891%)" offset="0.207031"/><stop stop-opacity="1" stop-color="rgb(1.0849%, 11.515808%, 15.368652%)" offset="0.210938"/><stop stop-opacity="1" stop-color="rgb(1.104736%, 11.727905%, 15.65094%)" offset="0.214844"/><stop stop-opacity="1" stop-color="rgb(1.124573%, 11.938477%, 15.933228%)" offset="0.21875"/><stop stop-opacity="1" stop-color="rgb(1.144409%, 12.150574%, 16.215515%)" offset="0.222656"/><stop stop-opacity="1" stop-color="rgb(1.164246%, 12.361145%, 16.497803%)" offset="0.226562"/><stop stop-opacity="1" stop-color="rgb(1.184082%, 12.573242%, 16.78009%)" offset="0.230469"/><stop stop-opacity="1" stop-color="rgb(1.203918%, 12.783813%, 17.060852%)" offset="0.234375"/><stop stop-opacity="1" stop-color="rgb(1.223755%, 12.995911%, 17.34314%)" offset="0.238281"/><stop stop-opacity="1" stop-color="rgb(1.243591%, 13.206482%, 17.625427%)" offset="0.242188"/><stop stop-opacity="1" stop-color="rgb(1.263428%, 13.418579%, 17.907715%)" offset="0.246094"/><stop stop-opacity="1" stop-color="rgb(1.283264%, 13.62915%, 18.190002%)" offset="0.25"/><stop stop-opacity="1" stop-color="rgb(1.303101%, 13.841248%, 18.47229%)" offset="0.253906"/><stop stop-opacity="1" stop-color="rgb(1.322937%, 14.051819%, 18.753052%)" offset="0.257812"/><stop stop-opacity="1" stop-color="rgb(1.342773%, 14.263916%, 19.035339%)" offset="0.261719"/><stop stop-opacity="1" stop-color="rgb(1.36261%, 14.474487%, 19.317627%)" offset="0.265625"/><stop stop-opacity="1" stop-color="rgb(1.382446%, 14.686584%, 19.599915%)" offset="0.269531"/><stop stop-opacity="1" stop-color="rgb(1.402283%, 14.897156%, 19.882202%)" offset="0.273438"/><stop stop-opacity="1" stop-color="rgb(1.423645%, 15.109253%, 20.16449%)" offset="0.277344"/><stop stop-opacity="1" stop-color="rgb(1.443481%, 15.319824%, 20.445251%)" offset="0.28125"/><stop stop-opacity="1" stop-color="rgb(1.463318%, 15.531921%, 20.727539%)" offset="0.285156"/><stop stop-opacity="1" stop-color="rgb(1.483154%, 15.742493%, 21.009827%)" offset="0.289062"/><stop stop-opacity="1" stop-color="rgb(1.502991%, 15.95459%, 21.292114%)" offset="0.292969"/><stop stop-opacity="1" stop-color="rgb(1.522827%, 16.165161%, 21.574402%)" offset="0.296875"/><stop stop-opacity="1" stop-color="rgb(1.542664%, 16.377258%, 21.856689%)" offset="0.300781"/><stop stop-opacity="1" stop-color="rgb(1.5625%, 16.58783%, 22.137451%)" offset="0.304688"/><stop stop-opacity="1" stop-color="rgb(1.582336%, 16.799927%, 22.419739%)" offset="0.308594"/><stop stop-opacity="1" stop-color="rgb(1.602173%, 17.010498%, 22.702026%)" offset="0.3125"/><stop stop-opacity="1" stop-color="rgb(1.622009%, 17.222595%, 22.984314%)" offset="0.316406"/><stop stop-opacity="1" stop-color="rgb(1.641846%, 17.433167%, 23.266602%)" offset="0.320312"/><stop stop-opacity="1" stop-color="rgb(1.661682%, 17.645264%, 23.548889%)" offset="0.324219"/><stop stop-opacity="1" stop-color="rgb(1.681519%, 17.855835%, 23.829651%)" offset="0.328125"/><stop stop-opacity="1" stop-color="rgb(1.701355%, 18.067932%, 24.111938%)" offset="0.332031"/><stop stop-opacity="1" stop-color="rgb(1.721191%, 18.278503%, 24.394226%)" offset="0.335938"/><stop stop-opacity="1" stop-color="rgb(1.741028%, 18.490601%, 24.676514%)" offset="0.339844"/><stop stop-opacity="1" stop-color="rgb(1.760864%, 18.701172%, 24.958801%)" offset="0.34375"/><stop stop-opacity="1" stop-color="rgb(1.782227%, 18.913269%, 25.241089%)" offset="0.347656"/><stop stop-opacity="1" stop-color="rgb(1.802063%, 19.12384%, 25.521851%)" offset="0.351562"/><stop stop-opacity="1" stop-color="rgb(1.821899%, 19.335938%, 25.804138%)" offset="0.355469"/><stop stop-opacity="1" stop-color="rgb(1.841736%, 19.546509%, 26.086426%)" offset="0.359375"/><stop stop-opacity="1" stop-color="rgb(1.861572%, 19.758606%, 26.368713%)" offset="0.363281"/><stop stop-opacity="1" stop-color="rgb(1.881409%, 19.969177%, 26.651001%)" offset="0.367188"/><stop stop-opacity="1" stop-color="rgb(1.901245%, 20.181274%, 26.933289%)" offset="0.371094"/><stop stop-opacity="1" stop-color="rgb(1.921082%, 20.391846%, 27.21405%)" offset="0.375"/><stop stop-opacity="1" stop-color="rgb(1.940918%, 20.603943%, 27.496338%)" offset="0.378906"/><stop stop-opacity="1" stop-color="rgb(1.960754%, 20.814514%, 27.778625%)" offset="0.382812"/><stop stop-opacity="1" stop-color="rgb(1.980591%, 21.026611%, 28.060913%)" offset="0.386719"/><stop stop-opacity="1" stop-color="rgb(2.000427%, 21.237183%, 28.343201%)" offset="0.390625"/><stop stop-opacity="1" stop-color="rgb(2.020264%, 21.44928%, 28.625488%)" offset="0.394531"/><stop stop-opacity="1" stop-color="rgb(2.0401%, 21.659851%, 28.90625%)" offset="0.398438"/><stop stop-opacity="1" stop-color="rgb(2.059937%, 21.871948%, 29.188538%)" offset="0.402344"/><stop stop-opacity="1" stop-color="rgb(2.079773%, 22.08252%, 29.470825%)" offset="0.40625"/><stop stop-opacity="1" stop-color="rgb(2.099609%, 22.294617%, 29.753113%)" offset="0.410156"/><stop stop-opacity="1" stop-color="rgb(2.119446%, 22.505188%, 30.0354%)" offset="0.414062"/><stop stop-opacity="1" stop-color="rgb(2.140808%, 22.717285%, 30.317688%)" offset="0.417969"/><stop stop-opacity="1" stop-color="rgb(2.160645%, 22.927856%, 30.59845%)" offset="0.421875"/><stop stop-opacity="1" stop-color="rgb(2.180481%, 23.139954%, 30.880737%)" offset="0.425781"/><stop stop-opacity="1" stop-color="rgb(2.200317%, 23.350525%, 31.163025%)" offset="0.429688"/><stop stop-opacity="1" stop-color="rgb(2.220154%, 23.562622%, 31.445312%)" offset="0.433594"/><stop stop-opacity="1" stop-color="rgb(2.23999%, 23.773193%, 31.7276%)" offset="0.4375"/><stop stop-opacity="1" stop-color="rgb(2.259827%, 23.985291%, 32.009888%)" offset="0.441406"/><stop stop-opacity="1" stop-color="rgb(2.279663%, 24.195862%, 32.290649%)" offset="0.445312"/><stop stop-opacity="1" stop-color="rgb(2.2995%, 24.407959%, 32.572937%)" offset="0.449219"/><stop stop-opacity="1" stop-color="rgb(2.319336%, 24.61853%, 32.855225%)" offset="0.453125"/><stop stop-opacity="1" stop-color="rgb(2.339172%, 24.830627%, 33.137512%)" offset="0.457031"/><stop stop-opacity="1" stop-color="rgb(2.359009%, 25.041199%, 33.4198%)" offset="0.460938"/><stop stop-opacity="1" stop-color="rgb(2.378845%, 25.253296%, 33.702087%)" offset="0.464844"/><stop stop-opacity="1" stop-color="rgb(2.398682%, 25.463867%, 33.982849%)" offset="0.46875"/><stop stop-opacity="1" stop-color="rgb(2.418518%, 25.675964%, 34.265137%)" offset="0.472656"/><stop stop-opacity="1" stop-color="rgb(2.438354%, 25.886536%, 34.547424%)" offset="0.476562"/><stop stop-opacity="1" stop-color="rgb(2.458191%, 26.098633%, 34.829712%)" offset="0.480469"/><stop stop-opacity="1" stop-color="rgb(2.479553%, 26.309204%, 35.112%)" offset="0.484375"/><stop stop-opacity="1" stop-color="rgb(2.49939%, 26.521301%, 35.394287%)" offset="0.488281"/><stop stop-opacity="1" stop-color="rgb(2.519226%, 26.731873%, 35.675049%)" offset="0.492188"/><stop stop-opacity="1" stop-color="rgb(2.539062%, 26.942444%, 35.957336%)" offset="0.496094"/><stop stop-opacity="1" stop-color="rgb(2.558899%, 27.154541%, 36.239624%)" offset="0.5"/><stop stop-opacity="1" stop-color="rgb(2.578735%, 27.365112%, 36.521912%)" offset="0.503906"/><stop stop-opacity="1" stop-color="rgb(2.598572%, 27.577209%, 36.804199%)" offset="0.507812"/><stop stop-opacity="1" stop-color="rgb(2.618408%, 27.787781%, 37.084961%)" offset="0.511719"/><stop stop-opacity="1" stop-color="rgb(2.638245%, 27.999878%, 37.367249%)" offset="0.515625"/><stop stop-opacity="1" stop-color="rgb(2.658081%, 28.210449%, 37.649536%)" offset="0.519531"/><stop stop-opacity="1" stop-color="rgb(2.677917%, 28.422546%, 37.931824%)" offset="0.523438"/><stop stop-opacity="1" stop-color="rgb(2.697754%, 28.633118%, 38.214111%)" offset="0.527344"/><stop stop-opacity="1" stop-color="rgb(2.71759%, 28.845215%, 38.496399%)" offset="0.53125"/><stop stop-opacity="1" stop-color="rgb(2.737427%, 29.055786%, 38.777161%)" offset="0.535156"/><stop stop-opacity="1" stop-color="rgb(2.757263%, 29.267883%, 39.059448%)" offset="0.539062"/><stop stop-opacity="1" stop-color="rgb(2.7771%, 29.478455%, 39.341736%)" offset="0.542969"/><stop stop-opacity="1" stop-color="rgb(2.796936%, 29.690552%, 39.624023%)" offset="0.546875"/><stop stop-opacity="1" stop-color="rgb(2.816772%, 29.901123%, 39.906311%)" offset="0.550781"/><stop stop-opacity="1" stop-color="rgb(2.838135%, 30.11322%, 40.188599%)" offset="0.554688"/><stop stop-opacity="1" stop-color="rgb(2.857971%, 30.323792%, 40.46936%)" offset="0.558594"/><stop stop-opacity="1" stop-color="rgb(2.877808%, 30.535889%, 40.751648%)" offset="0.5625"/><stop stop-opacity="1" stop-color="rgb(2.897644%, 30.74646%, 41.033936%)" offset="0.566406"/><stop stop-opacity="1" stop-color="rgb(2.91748%, 30.958557%, 41.316223%)" offset="0.570312"/><stop stop-opacity="1" stop-color="rgb(2.937317%, 31.169128%, 41.598511%)" offset="0.574219"/><stop stop-opacity="1" stop-color="rgb(2.957153%, 31.381226%, 41.880798%)" offset="0.578125"/><stop stop-opacity="1" stop-color="rgb(2.97699%, 31.591797%, 42.16156%)" offset="0.582031"/><stop stop-opacity="1" stop-color="rgb(2.996826%, 31.803894%, 42.443848%)" offset="0.585938"/><stop stop-opacity="1" stop-color="rgb(3.016663%, 32.014465%, 42.726135%)" offset="0.589844"/><stop stop-opacity="1" stop-color="rgb(3.036499%, 32.226562%, 43.008423%)" offset="0.59375"/><stop stop-opacity="1" stop-color="rgb(3.056335%, 32.437134%, 43.29071%)" offset="0.597656"/><stop stop-opacity="1" stop-color="rgb(3.076172%, 32.649231%, 43.572998%)" offset="0.601562"/><stop stop-opacity="1" stop-color="rgb(3.096008%, 32.859802%, 43.85376%)" offset="0.605469"/><stop stop-opacity="1" stop-color="rgb(3.115845%, 33.071899%, 44.136047%)" offset="0.609375"/><stop stop-opacity="1" stop-color="rgb(3.135681%, 33.282471%, 44.418335%)" offset="0.613281"/><stop stop-opacity="1" stop-color="rgb(3.155518%, 33.494568%, 44.700623%)" offset="0.617188"/><stop stop-opacity="1" stop-color="rgb(3.175354%, 33.705139%, 44.98291%)" offset="0.621094"/><stop stop-opacity="1" stop-color="rgb(3.196716%, 33.917236%, 45.265198%)" offset="0.625"/><stop stop-opacity="1" stop-color="rgb(3.216553%, 34.127808%, 45.545959%)" offset="0.628906"/><stop stop-opacity="1" stop-color="rgb(3.236389%, 34.339905%, 45.828247%)" offset="0.632812"/><stop stop-opacity="1" stop-color="rgb(3.256226%, 34.550476%, 46.110535%)" offset="0.636719"/><stop stop-opacity="1" stop-color="rgb(3.276062%, 34.762573%, 46.392822%)" offset="0.640625"/><stop stop-opacity="1" stop-color="rgb(3.295898%, 34.973145%, 46.67511%)" offset="0.644531"/><stop stop-opacity="1" stop-color="rgb(3.315735%, 35.185242%, 46.957397%)" offset="0.648438"/><stop stop-opacity="1" stop-color="rgb(3.335571%, 35.395813%, 47.238159%)" offset="0.652344"/><stop stop-opacity="1" stop-color="rgb(3.355408%, 35.60791%, 47.520447%)" offset="0.65625"/><stop stop-opacity="1" stop-color="rgb(3.375244%, 35.818481%, 47.802734%)" offset="0.660156"/><stop stop-opacity="1" stop-color="rgb(3.395081%, 36.030579%, 48.085022%)" offset="0.664062"/><stop stop-opacity="1" stop-color="rgb(3.414917%, 36.24115%, 48.36731%)" offset="0.667969"/><stop stop-opacity="1" stop-color="rgb(3.434753%, 36.453247%, 48.649597%)" offset="0.671875"/><stop stop-opacity="1" stop-color="rgb(3.45459%, 36.663818%, 48.930359%)" offset="0.675781"/><stop stop-opacity="1" stop-color="rgb(3.474426%, 36.875916%, 49.212646%)" offset="0.679688"/><stop stop-opacity="1" stop-color="rgb(3.494263%, 37.086487%, 49.494934%)" offset="0.683594"/><stop stop-opacity="1" stop-color="rgb(3.514099%, 37.298584%, 49.777222%)" offset="0.6875"/><stop stop-opacity="1" stop-color="rgb(3.533936%, 37.509155%, 50.059509%)" offset="0.691406"/><stop stop-opacity="1" stop-color="rgb(3.555298%, 37.721252%, 50.341797%)" offset="0.695312"/><stop stop-opacity="1" stop-color="rgb(3.575134%, 37.931824%, 50.622559%)" offset="0.699219"/><stop stop-opacity="1" stop-color="rgb(3.594971%, 38.143921%, 50.904846%)" offset="0.703125"/><stop stop-opacity="1" stop-color="rgb(3.614807%, 38.354492%, 51.187134%)" offset="0.707031"/><stop stop-opacity="1" stop-color="rgb(3.634644%, 38.566589%, 51.469421%)" offset="0.710938"/><stop stop-opacity="1" stop-color="rgb(3.65448%, 38.777161%, 51.751709%)" offset="0.714844"/><stop stop-opacity="1" stop-color="rgb(3.674316%, 38.989258%, 52.033997%)" offset="0.71875"/><stop stop-opacity="1" stop-color="rgb(3.694153%, 39.199829%, 52.314758%)" offset="0.722656"/><stop stop-opacity="1" stop-color="rgb(3.713989%, 39.411926%, 52.597046%)" offset="0.726562"/><stop stop-opacity="1" stop-color="rgb(3.733826%, 39.622498%, 52.879333%)" offset="0.730469"/><stop stop-opacity="1" stop-color="rgb(3.753662%, 39.834595%, 53.161621%)" offset="0.734375"/><stop stop-opacity="1" stop-color="rgb(3.773499%, 40.045166%, 53.443909%)" offset="0.738281"/><stop stop-opacity="1" stop-color="rgb(3.793335%, 40.257263%, 53.726196%)" offset="0.742188"/><stop stop-opacity="1" stop-color="rgb(3.813171%, 40.467834%, 54.006958%)" offset="0.746094"/><stop stop-opacity="1" stop-color="rgb(3.833008%, 40.679932%, 54.289246%)" offset="0.75"/><stop stop-opacity="1" stop-color="rgb(3.852844%, 40.890503%, 54.571533%)" offset="0.753906"/><stop stop-opacity="1" stop-color="rgb(3.872681%, 41.1026%, 54.853821%)" offset="0.757812"/><stop stop-opacity="1" stop-color="rgb(3.892517%, 41.313171%, 55.136108%)" offset="0.761719"/><stop stop-opacity="1" stop-color="rgb(3.913879%, 41.525269%, 55.418396%)" offset="0.765625"/><stop stop-opacity="1" stop-color="rgb(3.933716%, 41.73584%, 55.699158%)" offset="0.769531"/><stop stop-opacity="1" stop-color="rgb(3.953552%, 41.947937%, 55.981445%)" offset="0.773438"/><stop stop-opacity="1" stop-color="rgb(3.973389%, 42.158508%, 56.263733%)" offset="0.777344"/><stop stop-opacity="1" stop-color="rgb(3.993225%, 42.370605%, 56.546021%)" offset="0.78125"/><stop stop-opacity="1" stop-color="rgb(4.013062%, 42.581177%, 56.828308%)" offset="0.785156"/><stop stop-opacity="1" stop-color="rgb(4.032898%, 42.793274%, 57.110596%)" offset="0.789062"/><stop stop-opacity="1" stop-color="rgb(4.052734%, 43.003845%, 57.391357%)" offset="0.792969"/><stop stop-opacity="1" stop-color="rgb(4.072571%, 43.215942%, 57.673645%)" offset="0.796875"/><stop stop-opacity="1" stop-color="rgb(4.092407%, 43.426514%, 57.955933%)" offset="0.800781"/><stop stop-opacity="1" stop-color="rgb(4.112244%, 43.638611%, 58.23822%)" offset="0.804688"/><stop stop-opacity="1" stop-color="rgb(4.13208%, 43.849182%, 58.520508%)" offset="0.808594"/><stop stop-opacity="1" stop-color="rgb(4.151917%, 44.061279%, 58.802795%)" offset="0.8125"/><stop stop-opacity="1" stop-color="rgb(4.171753%, 44.271851%, 59.083557%)" offset="0.816406"/><stop stop-opacity="1" stop-color="rgb(4.191589%, 44.483948%, 59.365845%)" offset="0.820312"/><stop stop-opacity="1" stop-color="rgb(4.211426%, 44.694519%, 59.648132%)" offset="0.824219"/><stop stop-opacity="1" stop-color="rgb(4.231262%, 44.906616%, 59.93042%)" offset="0.828125"/><stop stop-opacity="1" stop-color="rgb(4.251099%, 45.117188%, 60.212708%)" offset="0.832031"/><stop stop-opacity="1" stop-color="rgb(4.272461%, 45.329285%, 60.494995%)" offset="0.835938"/><stop stop-opacity="1" stop-color="rgb(4.292297%, 45.539856%, 60.775757%)" offset="0.839844"/><stop stop-opacity="1" stop-color="rgb(4.312134%, 45.751953%, 61.058044%)" offset="0.84375"/><stop stop-opacity="1" stop-color="rgb(4.33197%, 45.962524%, 61.340332%)" offset="0.847656"/><stop stop-opacity="1" stop-color="rgb(4.351807%, 46.174622%, 61.62262%)" offset="0.851562"/><stop stop-opacity="1" stop-color="rgb(4.371643%, 46.385193%, 61.904907%)" offset="0.855469"/><stop stop-opacity="1" stop-color="rgb(4.391479%, 46.59729%, 62.187195%)" offset="0.859375"/><stop stop-opacity="1" stop-color="rgb(4.411316%, 46.807861%, 62.467957%)" offset="0.863281"/><stop stop-opacity="1" stop-color="rgb(4.431152%, 47.019958%, 62.750244%)" offset="0.867188"/><stop stop-opacity="1" stop-color="rgb(4.450989%, 47.23053%, 63.032532%)" offset="0.871094"/><stop stop-opacity="1" stop-color="rgb(4.470825%, 47.442627%, 63.314819%)" offset="0.875"/><stop stop-opacity="1" stop-color="rgb(4.490662%, 47.653198%, 63.597107%)" offset="0.878906"/><stop stop-opacity="1" stop-color="rgb(4.510498%, 47.865295%, 63.879395%)" offset="0.882812"/><stop stop-opacity="1" stop-color="rgb(4.530334%, 48.075867%, 64.160156%)" offset="0.886719"/><stop stop-opacity="1" stop-color="rgb(4.550171%, 48.287964%, 64.442444%)" offset="0.890625"/><stop stop-opacity="1" stop-color="rgb(4.570007%, 48.498535%, 64.724731%)" offset="0.894531"/><stop stop-opacity="1" stop-color="rgb(4.589844%, 48.710632%, 65.007019%)" offset="0.898438"/><stop stop-opacity="1" stop-color="rgb(4.60968%, 48.921204%, 65.289307%)" offset="0.902344"/><stop stop-opacity="1" stop-color="rgb(4.631042%, 49.133301%, 65.571594%)" offset="0.90625"/><stop stop-opacity="1" stop-color="rgb(4.650879%, 49.343872%, 65.852356%)" offset="0.910156"/><stop stop-opacity="1" stop-color="rgb(4.670715%, 49.555969%, 66.134644%)" offset="0.914062"/><stop stop-opacity="1" stop-color="rgb(4.690552%, 49.766541%, 66.416931%)" offset="0.917969"/><stop stop-opacity="1" stop-color="rgb(4.710388%, 49.978638%, 66.699219%)" offset="0.921875"/><stop stop-opacity="1" stop-color="rgb(4.730225%, 50.189209%, 66.981506%)" offset="0.925781"/><stop stop-opacity="1" stop-color="rgb(4.750061%, 50.401306%, 67.263794%)" offset="0.929688"/><stop stop-opacity="1" stop-color="rgb(4.769897%, 50.611877%, 67.544556%)" offset="0.933594"/><stop stop-opacity="1" stop-color="rgb(4.789734%, 50.823975%, 67.826843%)" offset="0.9375"/><stop stop-opacity="1" stop-color="rgb(4.80957%, 51.034546%, 68.109131%)" offset="0.941406"/><stop stop-opacity="1" stop-color="rgb(4.829407%, 51.246643%, 68.391418%)" offset="0.945312"/><stop stop-opacity="1" stop-color="rgb(4.849243%, 51.457214%, 68.673706%)" offset="0.949219"/><stop stop-opacity="1" stop-color="rgb(4.86908%, 51.669312%, 68.955994%)" offset="0.953125"/><stop stop-opacity="1" stop-color="rgb(4.888916%, 51.879883%, 69.236755%)" offset="0.957031"/><stop stop-opacity="1" stop-color="rgb(4.908752%, 52.09198%, 69.519043%)" offset="0.960938"/><stop stop-opacity="1" stop-color="rgb(4.928589%, 52.302551%, 69.801331%)" offset="0.964844"/><stop stop-opacity="1" stop-color="rgb(4.948425%, 52.514648%, 70.083618%)" offset="0.96875"/><stop stop-opacity="1" stop-color="rgb(4.969788%, 52.72522%, 70.365906%)" offset="0.972656"/><stop stop-opacity="1" stop-color="rgb(4.989624%, 52.937317%, 70.648193%)" offset="0.976562"/><stop stop-opacity="1" stop-color="rgb(5.00946%, 53.147888%, 70.928955%)" offset="0.980469"/><stop stop-opacity="1" stop-color="rgb(5.029297%, 53.358459%, 71.211243%)" offset="0.984375"/><stop stop-opacity="1" stop-color="rgb(5.049133%, 53.570557%, 71.49353%)" offset="0.988281"/><stop stop-opacity="1" stop-color="rgb(5.06897%, 53.781128%, 71.775818%)" offset="0.992188"/><stop stop-opacity="1" stop-color="rgb(5.088806%, 53.993225%, 72.058105%)" offset="0.996094"/><stop stop-opacity="1" stop-color="rgb(5.099487%, 54.098511%, 72.198486%)" offset="1"/></radialGradient></defs><rect x="-37.5" width="450" fill="#ffffff" y="-37.499999" height="449.999989" fill-opacity="1"/><rect x="-37.5" width="450" fill="#ffffff" y="-37.499999" height="449.999989" fill-opacity="1"/><rect x="-37.5" fill="url(#11edac31fc)" width="450" y="-37.499999" height="449.999989"/><g fill="#edeced" fill-opacity="1"><g transform="translate(50.301157, 227.428279)"><g><path d="M 13.3125 3.46875 C 14.746094 4.730469 16.230469 5.355469 17.847656 5.25 C 25.9375 4.726562 34.589844 -10.726562 37.714844 -21.035156 C 38.074219 -22.414062 38.265625 -23.6875 38.183594 -24.945312 C 37.820312 -30.519531 33.164062 -35.542969 27.195312 -35.695312 C 25.664062 -35.6875 24.925781 -35.910156 24.867188 -36.808594 C 24.730469 -38.964844 29.433594 -45.769531 31.265625 -49.496094 C 33.183594 -53.320312 35.277344 -57.246094 34.894531 -61.734375 L 34.832031 -62.722656 C 34.800781 -63.171875 34.863281 -63.628906 34.832031 -64.078125 C 34.441406 -70.097656 30.355469 -73.265625 24.964844 -72.914062 C 14.988281 -72.265625 4.125 -64.433594 -0.761719 -57.710938 C -1.015625 -57.421875 -0.984375 -56.972656 -0.957031 -56.523438 C -0.921875 -55.984375 -0.785156 -55.269531 -0.746094 -54.640625 C 0.742188 -55.371094 1.316406 -54.867188 3.085938 -56.785156 C 8.230469 -62.351562 16.75 -68.773438 24.210938 -69.253906 C 28.164062 -69.511719 30.746094 -67.242188 30.988281 -63.558594 C 31.074219 -62.210938 30.882812 -59.582031 30.125 -58.71875 C 26.21875 -50.792969 22.308594 -42.871094 18.222656 -34.933594 C 17.261719 -33.066406 14.566406 -30.09375 13.125 -30 C 12.226562 -29.941406 11.828125 -30.546875 11.761719 -31.539062 C 11.75 -31.71875 11.746094 -31.808594 11.824219 -31.992188 C 12.394531 -38.527344 14.1875 -45.683594 13.773438 -52.0625 C 13.644531 -54.039062 12.765625 -55.066406 9.53125 -54.855469 C 6.832031 -54.683594 5.75 -51.90625 5.367188 -48.089844 C 4.214844 -37.996094 3.058594 -27.996094 2.175781 -17.921875 C 2.085938 -16.558594 2.082031 -15.207031 2.171875 -13.859375 C 2.320312 -11.523438 2.738281 -9.292969 3.144531 -7.152344 C 3.40625 -5.90625 4.914062 -4.921875 5.984375 -3.726562 C 7.324219 -5.347656 8.792969 -6.347656 9.070312 -9.070312 C 9.617188 -14.523438 10.539062 -19.816406 15.539062 -23.390625 L 16.207031 -24.246094 C 18.394531 -28.085938 23.617188 -31.042969 27.304688 -31.28125 C 30.089844 -31.460938 32.4375 -28.636719 32.605469 -26.03125 C 32.652344 -25.308594 32.609375 -24.585938 32.386719 -23.847656 C 30.792969 -16.4375 26.6875 -10.125 22.207031 -4.058594 C 21.378906 -2.921875 20.304688 -1.40625 18.957031 -1.320312 C 16.171875 -1.136719 15.722656 -5.261719 14.644531 -5.191406 C 13.296875 -5.105469 11.742188 -2.65625 11.878906 -0.5 C 11.949219 0.578125 12.398438 1.902344 13.3125 3.46875 Z M 13.3125 3.46875 "/></g></g></g><g fill="#edeced" fill-opacity="1"><g transform="translate(88.406064, 224.958177)"><g><path d="M 0.96875 -12.878906 C 1.453125 -5.417969 4.34375 -1.183594 8.300781 -1.441406 C 14.410156 -1.835938 18.902344 -13.320312 18.328125 -22.125 C 18.109375 -25.539062 17.542969 -30.105469 14.863281 -32.460938 C 13.9375 -31.40625 13.398438 -31.371094 13.492188 -29.933594 C 13.625 -27.867188 14.652344 -25.949219 14.773438 -24.0625 C 15.09375 -19.117188 13.492188 -13.238281 11.648438 -8.246094 C 11.355469 -7.234375 9.679688 -6.582031 8.566406 -5.699219 C 7.945312 -6.921875 6.765625 -8.378906 6.683594 -9.636719 C 6.335938 -15.03125 7.949219 -22.175781 11.261719 -26.722656 C 11.515625 -27.007812 11.65625 -27.648438 11.621094 -28.1875 C 11.519531 -29.714844 9.941406 -30.425781 8.773438 -30.351562 C 3.289062 -29.996094 1.054688 -17.125 0.96875 -12.878906 Z M 0.96875 -12.878906 "/></g></g></g><g fill="#edeced" fill-opacity="1"><g transform="translate(107.458497, 223.723128)"><g><path d="M 0.96875 -12.878906 C 1.453125 -5.417969 4.34375 -1.183594 8.300781 -1.441406 C 14.410156 -1.835938 18.902344 -13.320312 18.328125 -22.125 C 18.109375 -25.539062 17.542969 -30.105469 14.863281 -32.460938 C 13.9375 -31.40625 13.398438 -31.371094 13.492188 -29.933594 C 13.625 -27.867188 14.652344 -25.949219 14.773438 -24.0625 C 15.09375 -19.117188 13.492188 -13.238281 11.648438 -8.246094 C 11.355469 -7.234375 9.679688 -6.582031 8.566406 -5.699219 C 7.945312 -6.921875 6.765625 -8.378906 6.683594 -9.636719 C 6.335938 -15.03125 7.949219 -22.175781 11.261719 -26.722656 C 11.515625 -27.007812 11.65625 -27.648438 11.621094 -28.1875 C 11.519531 -29.714844 9.941406 -30.425781 8.773438 -30.351562 C 3.289062 -29.996094 1.054688 -17.125 0.96875 -12.878906 Z M 0.96875 -12.878906 "/></g></g></g><g fill="#edeced" fill-opacity="1"><g transform="translate(126.510926, 222.488078)"><g><path d="M 1.65625 -2.273438 C 2.398438 -1.960938 2.734375 1.808594 3.085938 3.050781 C 3.394531 3.660156 4.066406 4.25 4.472656 4.945312 C 5.160156 4.449219 5.949219 4.035156 6.09375 3.484375 C 7.375 -0.386719 8.5625 -4.34375 9.480469 -8.285156 C 10.449219 -11.417969 9.714844 -14.4375 12.425781 -17.140625 C 13.011719 -16.457031 13.863281 -15.878906 14.09375 -15.082031 C 14.191406 -13.554688 14.472656 -12.039062 14.570312 -10.511719 C 14.640625 -9.433594 14.445312 -8.246094 14.515625 -7.167969 C 14.691406 -4.472656 17.015625 -0.652344 19.621094 -0.820312 C 20.699219 -0.890625 21.796875 -2.042969 21.972656 -3.5 C 21.882812 -4.9375 17.742188 -4.761719 17.554688 -7.636719 C 17.433594 -9.523438 17.832031 -11.714844 17.703125 -13.691406 C 17.582031 -15.578125 16.671875 -17.054688 16.582031 -18.492188 C 16.441406 -20.648438 17.582031 -22.527344 18.992188 -24.425781 C 22.398438 -28.976562 25.320312 -35.394531 24.949219 -41.144531 C 24.851562 -42.671875 23.839844 -44.324219 21.414062 -44.164062 C 19.078125 -44.015625 17.277344 -35.59375 15.566406 -31.332031 C 15.265625 -30.410156 14.394531 -29.902344 13.800781 -29.324219 C 13.472656 -30.203125 13.230469 -31.179688 13 -31.976562 C 12.96875 -32.425781 13.292969 -32.988281 13.269531 -33.347656 C 14.308594 -43.796875 15.175781 -54.050781 16.125 -64.488281 C 16.109375 -64.757812 16.179688 -65.035156 16.164062 -65.304688 C 16.070312 -66.742188 15.082031 -68.03125 12.746094 -67.878906 C 9.421875 -67.664062 9.539062 -58.917969 8.859375 -54.089844 C 6.359375 -36.960938 3.847656 -20.011719 1.65625 -2.273438 Z M 1.65625 -2.273438 "/></g></g></g><g fill="#edeced" fill-opacity="1"><g transform="translate(150.685962, 220.920962)"><g><path d="M 31.191406 -45.070312 C 30.46875 -45.113281 29.660156 -45.0625 28.941406 -45.015625 C 21.390625 -44.523438 14.058594 -40.710938 7.273438 -39.550781 C 10.863281 -44.023438 15.035156 -47.902344 19.1875 -52.054688 C 21.90625 -54.667969 24.605469 -57.550781 27.707031 -59.824219 C 27.855469 -57.578125 28.578125 -54.738281 29.660156 -54.808594 C 30.558594 -54.867188 32.8125 -60.425781 33.128906 -62.523438 C 33.25 -63.433594 33.28125 -64.339844 33.230469 -65.148438 C 33.066406 -67.664062 32.046875 -69.492188 30.070312 -69.363281 C 29.257812 -69.3125 28.378906 -68.984375 27.339844 -68.285156 C 18.535156 -62.117188 10.28125 -53.011719 3.785156 -44.648438 C 2.289062 -42.65625 0.214844 -38.460938 0.425781 -35.222656 C 0.59375 -32.617188 2.433594 -30.660156 6.390625 -30.917969 C 10.433594 -31.179688 15.152344 -33.5625 18.160156 -34.480469 C 21.261719 -35.402344 25.675781 -36.859375 29.632812 -37.117188 C 31.609375 -37.246094 35.898438 -36.53125 35.945312 -35.8125 C 36.019531 -34.644531 34.371094 -30.835938 33.230469 -28.957031 C 29.230469 -21.027344 22.125 -13.707031 14.703125 -8.445312 C 13.140625 -7.53125 11.328125 -6.238281 9.800781 -6.140625 C 9.261719 -6.105469 8.625 -6.15625 8.265625 -6.132812 C 8.230469 -6.671875 8.363281 -7.402344 8.316406 -8.121094 C 8.191406 -10.097656 7.109375 -12.824219 6.121094 -12.761719 C 5.222656 -12.703125 4.222656 -8.667969 4.496094 -4.441406 C 4.722656 -0.9375 6.015625 2.316406 9.609375 2.085938 C 16.890625 1.613281 23.832031 -6.871094 28.371094 -12.035156 C 33.996094 -18.539062 39.925781 -27.316406 39.25 -36.296875 C 38.9375 -41.148438 36.445312 -44.777344 31.191406 -45.070312 Z M 31.191406 -45.070312 "/></g></g></g><g fill="#edeced" fill-opacity="1"><g transform="translate(190.678144, 218.32852)"><g><path d="M 0.96875 -12.878906 C 1.453125 -5.417969 4.34375 -1.183594 8.300781 -1.441406 C 14.410156 -1.835938 18.902344 -13.320312 18.328125 -22.125 C 18.109375 -25.539062 17.542969 -30.105469 14.863281 -32.460938 C 13.9375 -31.40625 13.398438 -31.371094 13.492188 -29.933594 C 13.625 -27.867188 14.652344 -25.949219 14.773438 -24.0625 C 15.09375 -19.117188 13.492188 -13.238281 11.648438 -8.246094 C 11.355469 -7.234375 9.679688 -6.582031 8.566406 -5.699219 C 7.945312 -6.921875 6.765625 -8.378906 6.683594 -9.636719 C 6.335938 -15.03125 7.949219 -22.175781 11.261719 -26.722656 C 11.515625 -27.007812 11.65625 -27.648438 11.621094 -28.1875 C 11.519531 -29.714844 9.941406 -30.425781 8.773438 -30.351562 C 3.289062 -29.996094 1.054688 -17.125 0.96875 -12.878906 Z M 0.96875 -12.878906 "/></g></g></g><g fill="#edeced" fill-opacity="1"><g transform="translate(209.730579, 217.09347)"><g><path d="M 37.097656 -27.765625 C 36.828125 -27.746094 36.640625 -27.824219 36.550781 -27.820312 L 36.5 -28.628906 C 36.34375 -31.054688 34.511719 -32.832031 33.703125 -32.777344 C 29.929688 -32.535156 28.785156 -29.300781 26.628906 -26.363281 C 25.800781 -25.226562 24.667969 -24.613281 23.757812 -23.289062 C 23.433594 -25.523438 22.351562 -29.695312 21.183594 -29.621094 C 18.667969 -29.457031 16.226562 -25.328125 13.75 -23.183594 C 13.160156 -22.511719 12.082031 -22.441406 11.121094 -21.929688 C 10.976562 -22.820312 10.648438 -23.703125 10.59375 -24.511719 C 10.488281 -26.128906 10.9375 -27.601562 10.84375 -29.039062 C 10.71875 -30.929688 10.046875 -32.960938 7.980469 -32.824219 C 6.003906 -32.699219 4.160156 -31.855469 3.863281 -29.492188 C 2.898438 -22.117188 2.011719 -14.929688 1.300781 -7.753906 L 1.34375 -7.125 C 1.511719 -4.519531 2.964844 -2.988281 4.042969 -3.058594 C 5.480469 -3.152344 7.296875 -5.796875 7.933594 -8.457031 C 9.480469 -15.234375 13.574219 -21.726562 19.085938 -25.785156 C 19.3125 -25.078125 19.71875 -24.382812 19.769531 -23.574219 C 19.949219 -20.785156 18.878906 -17.828125 19.058594 -15.042969 C 19.113281 -14.234375 19.703125 -13.460938 20.117188 -12.675781 C 20.992188 -13.09375 22.230469 -13.445312 22.71875 -14.289062 C 25.597656 -18.625 27.816406 -23.371094 30.902344 -27.273438 C 31.238281 -27.65625 32.046875 -27.707031 32.574219 -27.921875 C 32.699219 -27.390625 32.917969 -26.773438 32.953125 -26.234375 L 31.546875 -17.296875 C 30.898438 -13.375 30.078125 -9.351562 29.53125 -5.253906 C 29.578125 -4.535156 30.445312 -3.6875 30.863281 -2.8125 C 31.542969 -3.488281 32.675781 -4.105469 32.800781 -4.925781 C 35.253906 -11.671875 35.691406 -20.183594 37.097656 -27.765625 Z M 37.097656 -27.765625 "/></g></g></g><g fill="#edeced" fill-opacity="1"><g transform="translate(246.936788, 214.681625)"><g><path d="M 17.035156 -25.382812 C 17.316406 -25.21875 17.417969 -25.042969 17.6875 -25.0625 C 16.953125 -16.890625 17.339844 -8.164062 17.503906 -0.0507812 C 17.570312 0.9375 18.257812 1.792969 18.578125 2.585938 C 19.070312 1.832031 19.648438 0.984375 19.683594 0.167969 C 20.292969 -8.535156 20.820312 -17.144531 21.339844 -25.839844 C 21.382812 -26.566406 21.425781 -27.289062 21.378906 -28.007812 C 21.285156 -29.445312 20.726562 -31.125 18.925781 -31.007812 C 16.949219 -30.878906 14.472656 -28.734375 13.320312 -27.035156 L 10.203125 -20.785156 C 9.886719 -20.132812 8.933594 -19.53125 8.332031 -19.039062 C 8.195312 -19.753906 7.777344 -20.628906 7.730469 -21.347656 C 7.589844 -23.503906 7.890625 -25.871094 7.75 -28.027344 C 7.640625 -29.734375 6.90625 -31.3125 4.65625 -31.167969 C 2.859375 -31.050781 1.671875 -29.890625 1.53125 -27.894531 L 1.28125 -23.367188 C 1.238281 -18.492188 0.941406 -13.328125 1.253906 -8.472656 C 1.367188 -6.765625 2.113281 -5.011719 4.179688 -5.144531 C 8.582031 -5.429688 11.722656 -15.46875 14.265625 -20.78125 C 15.066406 -22.367188 15.964844 -23.777344 17.035156 -25.382812 Z M 17.035156 -25.382812 "/></g></g></g><g fill="#edeced" fill-opacity="1"><g transform="translate(268.505576, 213.283455)"><g><path d="M -0.328125 -5.03125 C -0.148438 -5.042969 -0.046875 -4.871094 -0.046875 -4.871094 L -0.00390625 -4.242188 C 0.0820312 -2.894531 1.53125 -1.453125 2.414062 -0.335938 C 3.632812 -1.046875 5.546875 -2.164062 5.882812 -3.902344 C 7.355469 -11.847656 8.8125 -19.972656 10.097656 -28 L 10.070312 -28.449219 C 9.941406 -30.425781 8.300781 -32.035156 6.234375 -31.902344 C 0.214844 -31.511719 1.800781 -22.316406 1.285156 -17.773438 C 0.753906 -13.40625 0.296875 -9.316406 -0.328125 -5.03125 Z M 5.519531 -44.308594 C 6.089844 -43.894531 7.917969 -42.117188 8.457031 -42.152344 C 10.703125 -42.296875 12.082031 -47.53125 12.105469 -47.171875 C 12.015625 -48.519531 10.710938 -49.15625 9.003906 -49.046875 C 6.757812 -48.902344 5.402344 -47.550781 5.519531 -44.308594 Z M 5.519531 -44.308594 "/></g></g></g><g fill="#edeced" fill-opacity="1"><g transform="translate(280.278534, 212.520288)"><g><path d="M 14.296875 -31.429688 C 12.210938 -30.210938 9.554688 -29.410156 7.84375 -27.945312 C 3.058594 -23.84375 -0.195312 -16.953125 0.222656 -10.484375 C 0.402344 -7.695312 2.257812 -5.5625 4.953125 -5.734375 C 8.007812 -5.933594 10.890625 -8.828125 11.429688 -8.863281 C 12.957031 -8.960938 11.511719 -6.160156 14.222656 -3.359375 C 15.101562 -2.332031 15.859375 -1.75 16.667969 -1.800781 C 18.824219 -1.941406 19.035156 -5.65625 19.1875 -8.914062 C 19.476562 -14.167969 19.851562 -19.515625 20.324219 -24.78125 C 20.378906 -25.328125 20.429688 -25.960938 20.398438 -26.410156 C 20.195312 -29.558594 18.191406 -31.230469 14.296875 -31.429688 Z M 14.804688 -23.613281 C 12.472656 -19.21875 9.175781 -11.605469 6.300781 -11.417969 C 5.21875 -11.347656 4.667969 -12.9375 4.636719 -13.386719 C 4.472656 -15.902344 8.167969 -21.558594 10.296875 -24.945312 C 10.714844 -25.421875 11.511719 -25.65625 12.320312 -25.707031 C 13.492188 -25.78125 13.613281 -25.25 14.804688 -23.613281 Z M 14.804688 -23.613281 "/></g></g></g></svg>