<svg xmlns="http://www.w3.org/2000/svg" xmlns:xlink="http://www.w3.org/1999/xlink" width="500" zoomAndPan="magnify" viewBox="0 0 375 374.999991" height="500" preserveAspectRatio="xMidYMid meet" version="1.0"><defs><g/><radialGradient gradientTransform="matrix(1, 0, 0, 1, 0.0000045, 0)" gradientUnits="userSpaceOnUse" r="530.330095" cx="0" id="b41ed4eabd" cy="0" fx="0" fy="0"><stop stop-opacity="1" stop-color="rgb(0.00915527%, 0.105286%, 0.140381%)" offset="0"/><stop stop-opacity="1" stop-color="rgb(0.0289917%, 0.315857%, 0.421143%)" offset="0.00390625"/><stop stop-opacity="1" stop-color="rgb(0.0488281%, 0.526428%, 0.70343%)" offset="0.0078125"/><stop stop-opacity="1" stop-color="rgb(0.0686646%, 0.738525%, 0.985718%)" offset="0.0117188"/><stop stop-opacity="1" stop-color="rgb(0.088501%, 0.949097%, 1.268005%)" offset="0.015625"/><stop stop-opacity="1" stop-color="rgb(0.108337%, 1.161194%, 1.550293%)" offset="0.0195312"/><stop stop-opacity="1" stop-color="rgb(0.128174%, 1.371765%, 1.831055%)" offset="0.0234375"/><stop stop-opacity="1" stop-color="rgb(0.14801%, 1.583862%, 2.113342%)" offset="0.0273438"/><stop stop-opacity="1" stop-color="rgb(0.167847%, 1.794434%, 2.39563%)" offset="0.03125"/><stop stop-opacity="1" stop-color="rgb(0.187683%, 2.006531%, 2.677917%)" offset="0.0351562"/><stop stop-opacity="1" stop-color="rgb(0.20752%, 2.217102%, 2.960205%)" offset="0.0390625"/><stop stop-opacity="1" stop-color="rgb(0.227356%, 2.429199%, 3.242493%)" offset="0.0429688"/><stop stop-opacity="1" stop-color="rgb(0.247192%, 2.639771%, 3.523254%)" offset="0.046875"/><stop stop-opacity="1" stop-color="rgb(0.267029%, 2.851868%, 3.805542%)" offset="0.0507812"/><stop stop-opacity="1" stop-color="rgb(0.286865%, 3.062439%, 4.08783%)" offset="0.0546875"/><stop stop-opacity="1" stop-color="rgb(0.306702%, 3.274536%, 4.370117%)" offset="0.0585938"/><stop stop-opacity="1" stop-color="rgb(0.326538%, 3.485107%, 4.652405%)" offset="0.0625"/><stop stop-opacity="1" stop-color="rgb(0.3479%, 3.697205%, 4.934692%)" offset="0.0664062"/><stop stop-opacity="1" stop-color="rgb(0.367737%, 3.907776%, 5.215454%)" offset="0.0703125"/><stop stop-opacity="1" stop-color="rgb(0.387573%, 4.119873%, 5.497742%)" offset="0.0742188"/><stop stop-opacity="1" stop-color="rgb(0.40741%, 4.330444%, 5.780029%)" offset="0.078125"/><stop stop-opacity="1" stop-color="rgb(0.427246%, 4.542542%, 6.062317%)" offset="0.0820312"/><stop stop-opacity="1" stop-color="rgb(0.447083%, 4.753113%, 6.344604%)" offset="0.0859375"/><stop stop-opacity="1" stop-color="rgb(0.466919%, 4.96521%, 6.626892%)" offset="0.0898438"/><stop stop-opacity="1" stop-color="rgb(0.486755%, 5.175781%, 6.907654%)" offset="0.09375"/><stop stop-opacity="1" stop-color="rgb(0.506592%, 5.387878%, 7.189941%)" offset="0.0976562"/><stop stop-opacity="1" stop-color="rgb(0.526428%, 5.59845%, 7.472229%)" offset="0.101562"/><stop stop-opacity="1" stop-color="rgb(0.546265%, 5.810547%, 7.754517%)" offset="0.105469"/><stop stop-opacity="1" stop-color="rgb(0.566101%, 6.021118%, 8.036804%)" offset="0.109375"/><stop stop-opacity="1" stop-color="rgb(0.585938%, 6.233215%, 8.319092%)" offset="0.113281"/><stop stop-opacity="1" stop-color="rgb(0.605774%, 6.443787%, 8.599854%)" offset="0.117188"/><stop stop-opacity="1" stop-color="rgb(0.62561%, 6.655884%, 8.882141%)" offset="0.121094"/><stop stop-opacity="1" stop-color="rgb(0.645447%, 6.866455%, 9.164429%)" offset="0.125"/><stop stop-opacity="1" stop-color="rgb(0.665283%, 7.078552%, 9.446716%)" offset="0.128906"/><stop stop-opacity="1" stop-color="rgb(0.68512%, 7.289124%, 9.729004%)" offset="0.132812"/><stop stop-opacity="1" stop-color="rgb(0.706482%, 7.501221%, 10.011292%)" offset="0.136719"/><stop stop-opacity="1" stop-color="rgb(0.726318%, 7.711792%, 10.292053%)" offset="0.140625"/><stop stop-opacity="1" stop-color="rgb(0.746155%, 7.923889%, 10.574341%)" offset="0.144531"/><stop stop-opacity="1" stop-color="rgb(0.765991%, 8.13446%, 10.856628%)" offset="0.148438"/><stop stop-opacity="1" stop-color="rgb(0.785828%, 8.346558%, 11.138916%)" offset="0.152344"/><stop stop-opacity="1" stop-color="rgb(0.805664%, 8.557129%, 11.421204%)" offset="0.15625"/><stop stop-opacity="1" stop-color="rgb(0.8255%, 8.769226%, 11.703491%)" offset="0.160156"/><stop stop-opacity="1" stop-color="rgb(0.845337%, 8.979797%, 11.984253%)" offset="0.164062"/><stop stop-opacity="1" stop-color="rgb(0.865173%, 9.191895%, 12.266541%)" offset="0.167969"/><stop stop-opacity="1" stop-color="rgb(0.88501%, 9.402466%, 12.548828%)" offset="0.171875"/><stop stop-opacity="1" stop-color="rgb(0.904846%, 9.614563%, 12.831116%)" offset="0.175781"/><stop stop-opacity="1" stop-color="rgb(0.924683%, 9.825134%, 13.113403%)" offset="0.179688"/><stop stop-opacity="1" stop-color="rgb(0.944519%, 10.037231%, 13.395691%)" offset="0.183594"/><stop stop-opacity="1" stop-color="rgb(0.964355%, 10.247803%, 13.676453%)" offset="0.1875"/><stop stop-opacity="1" stop-color="rgb(0.984192%, 10.4599%, 13.95874%)" offset="0.191406"/><stop stop-opacity="1" stop-color="rgb(1.004028%, 10.670471%, 14.241028%)" offset="0.195312"/><stop stop-opacity="1" stop-color="rgb(1.023865%, 10.882568%, 14.523315%)" offset="0.199219"/><stop stop-opacity="1" stop-color="rgb(1.043701%, 11.09314%, 14.805603%)" offset="0.203125"/><stop stop-opacity="1" stop-color="rgb(1.065063%, 11.305237%, 15.087891%)" offset="0.207031"/><stop stop-opacity="1" stop-color="rgb(1.0849%, 11.515808%, 15.368652%)" offset="0.210938"/><stop stop-opacity="1" stop-color="rgb(1.104736%, 11.727905%, 15.65094%)" offset="0.214844"/><stop stop-opacity="1" stop-color="rgb(1.124573%, 11.938477%, 15.933228%)" offset="0.21875"/><stop stop-opacity="1" stop-color="rgb(1.144409%, 12.150574%, 16.215515%)" offset="0.222656"/><stop stop-opacity="1" stop-color="rgb(1.164246%, 12.361145%, 16.497803%)" offset="0.226562"/><stop stop-opacity="1" stop-color="rgb(1.184082%, 12.573242%, 16.78009%)" offset="0.230469"/><stop stop-opacity="1" stop-color="rgb(1.203918%, 12.783813%, 17.060852%)" offset="0.234375"/><stop stop-opacity="1" stop-color="rgb(1.223755%, 12.995911%, 17.34314%)" offset="0.238281"/><stop stop-opacity="1" stop-color="rgb(1.243591%, 13.206482%, 17.625427%)" offset="0.242188"/><stop stop-opacity="1" stop-color="rgb(1.263428%, 13.418579%, 17.907715%)" offset="0.246094"/><stop stop-opacity="1" stop-color="rgb(1.283264%, 13.62915%, 18.190002%)" offset="0.25"/><stop stop-opacity="1" stop-color="rgb(1.303101%, 13.841248%, 18.47229%)" offset="0.253906"/><stop stop-opacity="1" stop-color="rgb(1.322937%, 14.051819%, 18.753052%)" offset="0.257812"/><stop stop-opacity="1" stop-color="rgb(1.342773%, 14.263916%, 19.035339%)" offset="0.261719"/><stop stop-opacity="1" stop-color="rgb(1.36261%, 14.474487%, 19.317627%)" offset="0.265625"/><stop stop-opacity="1" stop-color="rgb(1.382446%, 14.686584%, 19.599915%)" offset="0.269531"/><stop stop-opacity="1" stop-color="rgb(1.402283%, 14.897156%, 19.882202%)" offset="0.273438"/><stop stop-opacity="1" stop-color="rgb(1.423645%, 15.109253%, 20.16449%)" offset="0.277344"/><stop stop-opacity="1" stop-color="rgb(1.443481%, 15.319824%, 20.445251%)" offset="0.28125"/><stop stop-opacity="1" stop-color="rgb(1.463318%, 15.531921%, 20.727539%)" offset="0.285156"/><stop stop-opacity="1" stop-color="rgb(1.483154%, 15.742493%, 21.009827%)" offset="0.289062"/><stop stop-opacity="1" stop-color="rgb(1.502991%, 15.95459%, 21.292114%)" offset="0.292969"/><stop stop-opacity="1" stop-color="rgb(1.522827%, 16.165161%, 21.574402%)" offset="0.296875"/><stop stop-opacity="1" stop-color="rgb(1.542664%, 16.377258%, 21.856689%)" offset="0.300781"/><stop stop-opacity="1" stop-color="rgb(1.5625%, 16.58783%, 22.137451%)" offset="0.304688"/><stop stop-opacity="1" stop-color="rgb(1.582336%, 16.799927%, 22.419739%)" offset="0.308594"/><stop stop-opacity="1" stop-color="rgb(1.602173%, 17.010498%, 22.702026%)" offset="0.3125"/><stop stop-opacity="1" stop-color="rgb(1.622009%, 17.222595%, 22.984314%)" offset="0.316406"/><stop stop-opacity="1" stop-color="rgb(1.641846%, 17.433167%, 23.266602%)" offset="0.320312"/><stop stop-opacity="1" stop-color="rgb(1.661682%, 17.645264%, 23.548889%)" offset="0.324219"/><stop stop-opacity="1" stop-color="rgb(1.681519%, 17.855835%, 23.829651%)" offset="0.328125"/><stop stop-opacity="1" stop-color="rgb(1.701355%, 18.067932%, 24.111938%)" offset="0.332031"/><stop stop-opacity="1" stop-color="rgb(1.721191%, 18.278503%, 24.394226%)" offset="0.335938"/><stop stop-opacity="1" stop-color="rgb(1.741028%, 18.490601%, 24.676514%)" offset="0.339844"/><stop stop-opacity="1" stop-color="rgb(1.760864%, 18.701172%, 24.958801%)" offset="0.34375"/><stop stop-opacity="1" stop-color="rgb(1.782227%, 18.913269%, 25.241089%)" offset="0.347656"/><stop stop-opacity="1" stop-color="rgb(1.802063%, 19.12384%, 25.521851%)" offset="0.351562"/><stop stop-opacity="1" stop-color="rgb(1.821899%, 19.335938%, 25.804138%)" offset="0.355469"/><stop stop-opacity="1" stop-color="rgb(1.841736%, 19.546509%, 26.086426%)" offset="0.359375"/><stop stop-opacity="1" stop-color="rgb(1.861572%, 19.758606%, 26.368713%)" offset="0.363281"/><stop stop-opacity="1" stop-color="rgb(1.881409%, 19.969177%, 26.651001%)" offset="0.367188"/><stop stop-opacity="1" stop-color="rgb(1.901245%, 20.181274%, 26.933289%)" offset="0.371094"/><stop stop-opacity="1" stop-color="rgb(1.921082%, 20.391846%, 27.21405%)" offset="0.375"/><stop stop-opacity="1" stop-color="rgb(1.940918%, 20.603943%, 27.496338%)" offset="0.378906"/><stop stop-opacity="1" stop-color="rgb(1.960754%, 20.814514%, 27.778625%)" offset="0.382812"/><stop stop-opacity="1" stop-color="rgb(1.980591%, 21.026611%, 28.060913%)" offset="0.386719"/><stop stop-opacity="1" stop-color="rgb(2.000427%, 21.237183%, 28.343201%)" offset="0.390625"/><stop stop-opacity="1" stop-color="rgb(2.020264%, 21.44928%, 28.625488%)" offset="0.394531"/><stop stop-opacity="1" stop-color="rgb(2.0401%, 21.659851%, 28.90625%)" offset="0.398438"/><stop stop-opacity="1" stop-color="rgb(2.059937%, 21.871948%, 29.188538%)" offset="0.402344"/><stop stop-opacity="1" stop-color="rgb(2.079773%, 22.08252%, 29.470825%)" offset="0.40625"/><stop stop-opacity="1" stop-color="rgb(2.099609%, 22.294617%, 29.753113%)" offset="0.410156"/><stop stop-opacity="1" stop-color="rgb(2.119446%, 22.505188%, 30.0354%)" offset="0.414062"/><stop stop-opacity="1" stop-color="rgb(2.140808%, 22.717285%, 30.317688%)" offset="0.417969"/><stop stop-opacity="1" stop-color="rgb(2.160645%, 22.927856%, 30.59845%)" offset="0.421875"/><stop stop-opacity="1" stop-color="rgb(2.180481%, 23.139954%, 30.880737%)" offset="0.425781"/><stop stop-opacity="1" stop-color="rgb(2.200317%, 23.350525%, 31.163025%)" offset="0.429688"/><stop stop-opacity="1" stop-color="rgb(2.220154%, 23.562622%, 31.445312%)" offset="0.433594"/><stop stop-opacity="1" stop-color="rgb(2.23999%, 23.773193%, 31.7276%)" offset="0.4375"/><stop stop-opacity="1" stop-color="rgb(2.259827%, 23.985291%, 32.009888%)" offset="0.441406"/><stop stop-opacity="1" stop-color="rgb(2.279663%, 24.195862%, 32.290649%)" offset="0.445312"/><stop stop-opacity="1" stop-color="rgb(2.2995%, 24.407959%, 32.572937%)" offset="0.449219"/><stop stop-opacity="1" stop-color="rgb(2.319336%, 24.61853%, 32.855225%)" offset="0.453125"/><stop stop-opacity="1" stop-color="rgb(2.339172%, 24.830627%, 33.137512%)" offset="0.457031"/><stop stop-opacity="1" stop-color="rgb(2.359009%, 25.041199%, 33.4198%)" offset="0.460938"/><stop stop-opacity="1" stop-color="rgb(2.378845%, 25.253296%, 33.702087%)" offset="0.464844"/><stop stop-opacity="1" stop-color="rgb(2.398682%, 25.463867%, 33.982849%)" offset="0.46875"/><stop stop-opacity="1" stop-color="rgb(2.418518%, 25.675964%, 34.265137%)" offset="0.472656"/><stop stop-opacity="1" stop-color="rgb(2.438354%, 25.886536%, 34.547424%)" offset="0.476562"/><stop stop-opacity="1" stop-color="rgb(2.458191%, 26.098633%, 34.829712%)" offset="0.480469"/><stop stop-opacity="1" stop-color="rgb(2.479553%, 26.309204%, 35.112%)" offset="0.484375"/><stop stop-opacity="1" stop-color="rgb(2.49939%, 26.521301%, 35.394287%)" offset="0.488281"/><stop stop-opacity="1" stop-color="rgb(2.519226%, 26.731873%, 35.675049%)" offset="0.492188"/><stop stop-opacity="1" stop-color="rgb(2.539062%, 26.942444%, 35.957336%)" offset="0.496094"/><stop stop-opacity="1" stop-color="rgb(2.558899%, 27.154541%, 36.239624%)" offset="0.5"/><stop stop-opacity="1" stop-color="rgb(2.578735%, 27.365112%, 36.521912%)" offset="0.503906"/><stop stop-opacity="1" stop-color="rgb(2.598572%, 27.577209%, 36.804199%)" offset="0.507812"/><stop stop-opacity="1" stop-color="rgb(2.618408%, 27.787781%, 37.084961%)" offset="0.511719"/><stop stop-opacity="1" stop-color="rgb(2.638245%, 27.999878%, 37.367249%)" offset="0.515625"/><stop stop-opacity="1" stop-color="rgb(2.658081%, 28.210449%, 37.649536%)" offset="0.519531"/><stop stop-opacity="1" stop-color="rgb(2.677917%, 28.422546%, 37.931824%)" offset="0.523438"/><stop stop-opacity="1" stop-color="rgb(2.697754%, 28.633118%, 38.214111%)" offset="0.527344"/><stop stop-opacity="1" stop-color="rgb(2.71759%, 28.845215%, 38.496399%)" offset="0.53125"/><stop stop-opacity="1" stop-color="rgb(2.737427%, 29.055786%, 38.777161%)" offset="0.535156"/><stop stop-opacity="1" stop-color="rgb(2.757263%, 29.267883%, 39.059448%)" offset="0.539062"/><stop stop-opacity="1" stop-color="rgb(2.7771%, 29.478455%, 39.341736%)" offset="0.542969"/><stop stop-opacity="1" stop-color="rgb(2.796936%, 29.690552%, 39.624023%)" offset="0.546875"/><stop stop-opacity="1" stop-color="rgb(2.816772%, 29.901123%, 39.906311%)" offset="0.550781"/><stop stop-opacity="1" stop-color="rgb(2.838135%, 30.11322%, 40.188599%)" offset="0.554688"/><stop stop-opacity="1" stop-color="rgb(2.857971%, 30.323792%, 40.46936%)" offset="0.558594"/><stop stop-opacity="1" stop-color="rgb(2.877808%, 30.535889%, 40.751648%)" offset="0.5625"/><stop stop-opacity="1" stop-color="rgb(2.897644%, 30.74646%, 41.033936%)" offset="0.566406"/><stop stop-opacity="1" stop-color="rgb(2.91748%, 30.958557%, 41.316223%)" offset="0.570312"/><stop stop-opacity="1" stop-color="rgb(2.937317%, 31.169128%, 41.598511%)" offset="0.574219"/><stop stop-opacity="1" stop-color="rgb(2.957153%, 31.381226%, 41.880798%)" offset="0.578125"/><stop stop-opacity="1" stop-color="rgb(2.97699%, 31.591797%, 42.16156%)" offset="0.582031"/><stop stop-opacity="1" stop-color="rgb(2.996826%, 31.803894%, 42.443848%)" offset="0.585938"/><stop stop-opacity="1" stop-color="rgb(3.016663%, 32.014465%, 42.726135%)" offset="0.589844"/><stop stop-opacity="1" stop-color="rgb(3.036499%, 32.226562%, 43.008423%)" offset="0.59375"/><stop stop-opacity="1" stop-color="rgb(3.056335%, 32.437134%, 43.29071%)" offset="0.597656"/><stop stop-opacity="1" stop-color="rgb(3.076172%, 32.649231%, 43.572998%)" offset="0.601562"/><stop stop-opacity="1" stop-color="rgb(3.096008%, 32.859802%, 43.85376%)" offset="0.605469"/><stop stop-opacity="1" stop-color="rgb(3.115845%, 33.071899%, 44.136047%)" offset="0.609375"/><stop stop-opacity="1" stop-color="rgb(3.135681%, 33.282471%, 44.418335%)" offset="0.613281"/><stop stop-opacity="1" stop-color="rgb(3.155518%, 33.494568%, 44.700623%)" offset="0.617188"/><stop stop-opacity="1" stop-color="rgb(3.175354%, 33.705139%, 44.98291%)" offset="0.621094"/><stop stop-opacity="1" stop-color="rgb(3.196716%, 33.917236%, 45.265198%)" offset="0.625"/><stop stop-opacity="1" stop-color="rgb(3.216553%, 34.127808%, 45.545959%)" offset="0.628906"/><stop stop-opacity="1" stop-color="rgb(3.236389%, 34.339905%, 45.828247%)" offset="0.632812"/><stop stop-opacity="1" stop-color="rgb(3.256226%, 34.550476%, 46.110535%)" offset="0.636719"/><stop stop-opacity="1" stop-color="rgb(3.276062%, 34.762573%, 46.392822%)" offset="0.640625"/><stop stop-opacity="1" stop-color="rgb(3.295898%, 34.973145%, 46.67511%)" offset="0.644531"/><stop stop-opacity="1" stop-color="rgb(3.315735%, 35.185242%, 46.957397%)" offset="0.648438"/><stop stop-opacity="1" stop-color="rgb(3.335571%, 35.395813%, 47.238159%)" offset="0.652344"/><stop stop-opacity="1" stop-color="rgb(3.355408%, 35.60791%, 47.520447%)" offset="0.65625"/><stop stop-opacity="1" stop-color="rgb(3.375244%, 35.818481%, 47.802734%)" offset="0.660156"/><stop stop-opacity="1" stop-color="rgb(3.395081%, 36.030579%, 48.085022%)" offset="0.664062"/><stop stop-opacity="1" stop-color="rgb(3.414917%, 36.24115%, 48.36731%)" offset="0.667969"/><stop stop-opacity="1" stop-color="rgb(3.434753%, 36.453247%, 48.649597%)" offset="0.671875"/><stop stop-opacity="1" stop-color="rgb(3.45459%, 36.663818%, 48.930359%)" offset="0.675781"/><stop stop-opacity="1" stop-color="rgb(3.474426%, 36.875916%, 49.212646%)" offset="0.679688"/><stop stop-opacity="1" stop-color="rgb(3.494263%, 37.086487%, 49.494934%)" offset="0.683594"/><stop stop-opacity="1" stop-color="rgb(3.514099%, 37.298584%, 49.777222%)" offset="0.6875"/><stop stop-opacity="1" stop-color="rgb(3.533936%, 37.509155%, 50.059509%)" offset="0.691406"/><stop stop-opacity="1" stop-color="rgb(3.555298%, 37.721252%, 50.341797%)" offset="0.695312"/><stop stop-opacity="1" stop-color="rgb(3.575134%, 37.931824%, 50.622559%)" offset="0.699219"/><stop stop-opacity="1" stop-color="rgb(3.594971%, 38.143921%, 50.904846%)" offset="0.703125"/><stop stop-opacity="1" stop-color="rgb(3.614807%, 38.354492%, 51.187134%)" offset="0.707031"/><stop stop-opacity="1" stop-color="rgb(3.634644%, 38.566589%, 51.469421%)" offset="0.710938"/><stop stop-opacity="1" stop-color="rgb(3.65448%, 38.777161%, 51.751709%)" offset="0.714844"/><stop stop-opacity="1" stop-color="rgb(3.674316%, 38.989258%, 52.033997%)" offset="0.71875"/><stop stop-opacity="1" stop-color="rgb(3.694153%, 39.199829%, 52.314758%)" offset="0.722656"/><stop stop-opacity="1" stop-color="rgb(3.713989%, 39.411926%, 52.597046%)" offset="0.726562"/><stop stop-opacity="1" stop-color="rgb(3.733826%, 39.622498%, 52.879333%)" offset="0.730469"/><stop stop-opacity="1" stop-color="rgb(3.753662%, 39.834595%, 53.161621%)" offset="0.734375"/><stop stop-opacity="1" stop-color="rgb(3.773499%, 40.045166%, 53.443909%)" offset="0.738281"/><stop stop-opacity="1" stop-color="rgb(3.793335%, 40.257263%, 53.726196%)" offset="0.742188"/><stop stop-opacity="1" stop-color="rgb(3.813171%, 40.467834%, 54.006958%)" offset="0.746094"/><stop stop-opacity="1" stop-color="rgb(3.833008%, 40.679932%, 54.289246%)" offset="0.75"/><stop stop-opacity="1" stop-color="rgb(3.852844%, 40.890503%, 54.571533%)" offset="0.753906"/><stop stop-opacity="1" stop-color="rgb(3.872681%, 41.1026%, 54.853821%)" offset="0.757812"/><stop stop-opacity="1" stop-color="rgb(3.892517%, 41.313171%, 55.136108%)" offset="0.761719"/><stop stop-opacity="1" stop-color="rgb(3.913879%, 41.525269%, 55.418396%)" offset="0.765625"/><stop stop-opacity="1" stop-color="rgb(3.933716%, 41.73584%, 55.699158%)" offset="0.769531"/><stop stop-opacity="1" stop-color="rgb(3.953552%, 41.947937%, 55.981445%)" offset="0.773438"/><stop stop-opacity="1" stop-color="rgb(3.973389%, 42.158508%, 56.263733%)" offset="0.777344"/><stop stop-opacity="1" stop-color="rgb(3.993225%, 42.370605%, 56.546021%)" offset="0.78125"/><stop stop-opacity="1" stop-color="rgb(4.013062%, 42.581177%, 56.828308%)" offset="0.785156"/><stop stop-opacity="1" stop-color="rgb(4.032898%, 42.793274%, 57.110596%)" offset="0.789062"/><stop stop-opacity="1" stop-color="rgb(4.052734%, 43.003845%, 57.391357%)" offset="0.792969"/><stop stop-opacity="1" stop-color="rgb(4.072571%, 43.215942%, 57.673645%)" offset="0.796875"/><stop stop-opacity="1" stop-color="rgb(4.092407%, 43.426514%, 57.955933%)" offset="0.800781"/><stop stop-opacity="1" stop-color="rgb(4.112244%, 43.638611%, 58.23822%)" offset="0.804688"/><stop stop-opacity="1" stop-color="rgb(4.13208%, 43.849182%, 58.520508%)" offset="0.808594"/><stop stop-opacity="1" stop-color="rgb(4.151917%, 44.061279%, 58.802795%)" offset="0.8125"/><stop stop-opacity="1" stop-color="rgb(4.171753%, 44.271851%, 59.083557%)" offset="0.816406"/><stop stop-opacity="1" stop-color="rgb(4.191589%, 44.483948%, 59.365845%)" offset="0.820312"/><stop stop-opacity="1" stop-color="rgb(4.211426%, 44.694519%, 59.648132%)" offset="0.824219"/><stop stop-opacity="1" stop-color="rgb(4.231262%, 44.906616%, 59.93042%)" offset="0.828125"/><stop stop-opacity="1" stop-color="rgb(4.251099%, 45.117188%, 60.212708%)" offset="0.832031"/><stop stop-opacity="1" stop-color="rgb(4.272461%, 45.329285%, 60.494995%)" offset="0.835938"/><stop stop-opacity="1" stop-color="rgb(4.292297%, 45.539856%, 60.775757%)" offset="0.839844"/><stop stop-opacity="1" stop-color="rgb(4.312134%, 45.751953%, 61.058044%)" offset="0.84375"/><stop stop-opacity="1" stop-color="rgb(4.33197%, 45.962524%, 61.340332%)" offset="0.847656"/><stop stop-opacity="1" stop-color="rgb(4.351807%, 46.174622%, 61.62262%)" offset="0.851562"/><stop stop-opacity="1" stop-color="rgb(4.371643%, 46.385193%, 61.904907%)" offset="0.855469"/><stop stop-opacity="1" stop-color="rgb(4.391479%, 46.59729%, 62.187195%)" offset="0.859375"/><stop stop-opacity="1" stop-color="rgb(4.411316%, 46.807861%, 62.467957%)" offset="0.863281"/><stop stop-opacity="1" stop-color="rgb(4.431152%, 47.019958%, 62.750244%)" offset="0.867188"/><stop stop-opacity="1" stop-color="rgb(4.450989%, 47.23053%, 63.032532%)" offset="0.871094"/><stop stop-opacity="1" stop-color="rgb(4.470825%, 47.442627%, 63.314819%)" offset="0.875"/><stop stop-opacity="1" stop-color="rgb(4.490662%, 47.653198%, 63.597107%)" offset="0.878906"/><stop stop-opacity="1" stop-color="rgb(4.510498%, 47.865295%, 63.879395%)" offset="0.882812"/><stop stop-opacity="1" stop-color="rgb(4.530334%, 48.075867%, 64.160156%)" offset="0.886719"/><stop stop-opacity="1" stop-color="rgb(4.550171%, 48.287964%, 64.442444%)" offset="0.890625"/><stop stop-opacity="1" stop-color="rgb(4.570007%, 48.498535%, 64.724731%)" offset="0.894531"/><stop stop-opacity="1" stop-color="rgb(4.589844%, 48.710632%, 65.007019%)" offset="0.898438"/><stop stop-opacity="1" stop-color="rgb(4.60968%, 48.921204%, 65.289307%)" offset="0.902344"/><stop stop-opacity="1" stop-color="rgb(4.631042%, 49.133301%, 65.571594%)" offset="0.90625"/><stop stop-opacity="1" stop-color="rgb(4.650879%, 49.343872%, 65.852356%)" offset="0.910156"/><stop stop-opacity="1" stop-color="rgb(4.670715%, 49.555969%, 66.134644%)" offset="0.914062"/><stop stop-opacity="1" stop-color="rgb(4.690552%, 49.766541%, 66.416931%)" offset="0.917969"/><stop stop-opacity="1" stop-color="rgb(4.710388%, 49.978638%, 66.699219%)" offset="0.921875"/><stop stop-opacity="1" stop-color="rgb(4.730225%, 50.189209%, 66.981506%)" offset="0.925781"/><stop stop-opacity="1" stop-color="rgb(4.750061%, 50.401306%, 67.263794%)" offset="0.929688"/><stop stop-opacity="1" stop-color="rgb(4.769897%, 50.611877%, 67.544556%)" offset="0.933594"/><stop stop-opacity="1" stop-color="rgb(4.789734%, 50.823975%, 67.826843%)" offset="0.9375"/><stop stop-opacity="1" stop-color="rgb(4.80957%, 51.034546%, 68.109131%)" offset="0.941406"/><stop stop-opacity="1" stop-color="rgb(4.829407%, 51.246643%, 68.391418%)" offset="0.945312"/><stop stop-opacity="1" stop-color="rgb(4.849243%, 51.457214%, 68.673706%)" offset="0.949219"/><stop stop-opacity="1" stop-color="rgb(4.86908%, 51.669312%, 68.955994%)" offset="0.953125"/><stop stop-opacity="1" stop-color="rgb(4.888916%, 51.879883%, 69.236755%)" offset="0.957031"/><stop stop-opacity="1" stop-color="rgb(4.908752%, 52.09198%, 69.519043%)" offset="0.960938"/><stop stop-opacity="1" stop-color="rgb(4.928589%, 52.302551%, 69.801331%)" offset="0.964844"/><stop stop-opacity="1" stop-color="rgb(4.948425%, 52.514648%, 70.083618%)" offset="0.96875"/><stop stop-opacity="1" stop-color="rgb(4.969788%, 52.72522%, 70.365906%)" offset="0.972656"/><stop stop-opacity="1" stop-color="rgb(4.989624%, 52.937317%, 70.648193%)" offset="0.976562"/><stop stop-opacity="1" stop-color="rgb(5.00946%, 53.147888%, 70.928955%)" offset="0.980469"/><stop stop-opacity="1" stop-color="rgb(5.029297%, 53.358459%, 71.211243%)" offset="0.984375"/><stop stop-opacity="1" stop-color="rgb(5.049133%, 53.570557%, 71.49353%)" offset="0.988281"/><stop stop-opacity="1" stop-color="rgb(5.06897%, 53.781128%, 71.775818%)" offset="0.992188"/><stop stop-opacity="1" stop-color="rgb(5.088806%, 53.993225%, 72.058105%)" offset="0.996094"/><stop stop-opacity="1" stop-color="rgb(5.099487%, 54.098511%, 72.198486%)" offset="1"/></radialGradient></defs><rect x="-37.5" width="450" fill="#ffffff" y="-37.499999" height="449.999989" fill-opacity="1"/><rect x="-37.5" width="450" fill="#ffffff" y="-37.499999" height="449.999989" fill-opacity="1"/><rect x="-37.5" fill="url(#b41ed4eabd)" width="450" y="-37.499999" height="449.999989"/><g fill="#edeced" fill-opacity="1"><g transform="translate(19.549963, 227.083926)"><g><path d="M 17.75 4.625 C 19.664062 6.304688 21.640625 7.140625 23.800781 7 C 34.585938 6.300781 46.125 -14.300781 50.289062 -28.050781 C 50.769531 -29.886719 51.019531 -31.585938 50.910156 -33.265625 C 50.429688 -40.695312 44.21875 -47.390625 36.265625 -47.597656 C 34.21875 -47.585938 33.238281 -47.882812 33.160156 -49.082031 C 32.972656 -51.957031 39.246094 -61.027344 41.691406 -66 C 44.246094 -71.097656 47.035156 -76.332031 46.527344 -82.316406 L 46.445312 -83.636719 C 46.40625 -84.234375 46.484375 -84.84375 46.445312 -85.441406 C 45.925781 -93.46875 40.476562 -97.691406 33.289062 -97.222656 C 19.988281 -96.363281 5.5 -85.914062 -1.015625 -76.949219 C -1.351562 -76.566406 -1.3125 -75.96875 -1.277344 -75.367188 C -1.230469 -74.648438 -1.046875 -73.699219 -0.992188 -72.859375 C 0.988281 -73.832031 1.753906 -73.15625 4.117188 -75.71875 C 10.976562 -83.140625 22.335938 -91.699219 32.28125 -92.34375 C 37.554688 -92.6875 41 -89.660156 41.316406 -84.746094 C 41.433594 -82.949219 41.179688 -79.445312 40.171875 -78.296875 C 34.960938 -67.730469 29.746094 -57.164062 24.296875 -46.582031 C 23.015625 -44.089844 19.421875 -40.128906 17.503906 -40.003906 C 16.304688 -39.925781 15.769531 -40.734375 15.683594 -42.050781 C 15.671875 -42.292969 15.664062 -42.410156 15.765625 -42.660156 C 16.523438 -51.371094 18.914062 -60.914062 18.363281 -69.421875 C 18.191406 -72.058594 17.019531 -73.425781 12.707031 -73.144531 C 9.113281 -72.914062 7.667969 -69.210938 7.15625 -64.121094 C 5.621094 -50.664062 4.078125 -37.328125 2.902344 -23.894531 C 2.78125 -22.082031 2.777344 -20.277344 2.894531 -18.480469 C 3.09375 -15.363281 3.648438 -12.390625 4.195312 -9.539062 C 4.542969 -7.875 6.554688 -6.5625 7.980469 -4.96875 C 9.765625 -7.132812 11.726562 -8.460938 12.09375 -12.09375 C 12.824219 -19.363281 14.050781 -26.421875 20.722656 -31.1875 L 21.609375 -32.328125 C 24.527344 -37.449219 31.492188 -41.390625 36.40625 -41.710938 C 40.121094 -41.949219 43.253906 -38.183594 43.476562 -34.707031 C 43.539062 -33.75 43.480469 -32.78125 43.183594 -31.800781 C 41.058594 -21.914062 35.585938 -13.5 29.613281 -5.410156 C 28.507812 -3.894531 27.074219 -1.875 25.277344 -1.757812 C 21.5625 -1.519531 20.964844 -7.015625 19.527344 -6.921875 C 17.730469 -6.804688 15.65625 -3.542969 15.839844 -0.664062 C 15.933594 0.773438 16.53125 2.539062 17.75 4.625 Z M 17.75 4.625 "/></g></g></g><g fill="#edeced" fill-opacity="1"><g transform="translate(70.358943, 223.790299)"><g><path d="M 1.292969 -17.171875 C 1.9375 -7.226562 5.792969 -1.578125 11.066406 -1.921875 C 19.214844 -2.449219 25.203125 -17.757812 24.441406 -29.503906 C 24.144531 -34.054688 23.390625 -40.144531 19.816406 -43.28125 C 18.585938 -41.878906 17.867188 -41.832031 17.988281 -39.914062 C 18.167969 -37.160156 19.539062 -34.601562 19.699219 -32.082031 C 20.128906 -25.492188 17.988281 -17.652344 15.53125 -10.996094 C 15.140625 -9.644531 12.910156 -8.777344 11.421875 -7.597656 C 10.59375 -9.230469 9.023438 -11.175781 8.914062 -12.851562 C 8.449219 -20.042969 10.597656 -29.566406 15.019531 -35.628906 C 15.355469 -36.011719 15.539062 -36.867188 15.492188 -37.585938 C 15.363281 -39.625 13.253906 -40.570312 11.695312 -40.46875 C 4.386719 -39.996094 1.40625 -22.835938 1.292969 -17.171875 Z M 1.292969 -17.171875 "/></g></g></g><g fill="#edeced" fill-opacity="1"><g transform="translate(95.763405, 222.143487)"><g><path d="M 1.292969 -17.171875 C 1.9375 -7.226562 5.792969 -1.578125 11.066406 -1.921875 C 19.214844 -2.449219 25.203125 -17.757812 24.441406 -29.503906 C 24.144531 -34.054688 23.390625 -40.144531 19.816406 -43.28125 C 18.585938 -41.878906 17.867188 -41.832031 17.988281 -39.914062 C 18.167969 -37.160156 19.539062 -34.601562 19.699219 -32.082031 C 20.128906 -25.492188 17.988281 -17.652344 15.53125 -10.996094 C 15.140625 -9.644531 12.910156 -8.777344 11.421875 -7.597656 C 10.59375 -9.230469 9.023438 -11.175781 8.914062 -12.851562 C 8.449219 -20.042969 10.597656 -29.566406 15.019531 -35.628906 C 15.355469 -36.011719 15.539062 -36.867188 15.492188 -37.585938 C 15.363281 -39.625 13.253906 -40.570312 11.695312 -40.46875 C 4.386719 -39.996094 1.40625 -22.835938 1.292969 -17.171875 Z M 1.292969 -17.171875 "/></g></g></g><g fill="#edeced" fill-opacity="1"><g transform="translate(121.167862, 220.496676)"><g><path d="M 2.210938 -3.03125 C 3.199219 -2.613281 3.644531 2.410156 4.113281 4.066406 C 4.527344 4.882812 5.421875 5.664062 5.960938 6.59375 C 6.882812 5.933594 7.929688 5.382812 8.125 4.648438 C 9.835938 -0.515625 11.417969 -5.792969 12.640625 -11.046875 C 13.933594 -15.222656 12.953125 -19.25 16.570312 -22.855469 C 17.351562 -21.941406 18.484375 -21.175781 18.792969 -20.109375 C 18.925781 -18.074219 19.296875 -16.050781 19.429688 -14.015625 C 19.523438 -12.578125 19.261719 -10.996094 19.355469 -9.558594 C 19.589844 -5.964844 22.6875 -0.867188 26.164062 -1.09375 C 27.601562 -1.1875 29.066406 -2.726562 29.300781 -4.667969 C 29.175781 -6.585938 23.65625 -6.347656 23.40625 -10.179688 C 23.246094 -12.699219 23.777344 -15.621094 23.605469 -18.257812 C 23.441406 -20.773438 22.230469 -22.742188 22.109375 -24.65625 C 21.921875 -27.535156 23.445312 -30.039062 25.324219 -32.566406 C 29.867188 -38.636719 33.761719 -47.195312 33.265625 -54.863281 C 33.132812 -56.902344 31.789062 -59.101562 28.554688 -58.890625 C 25.4375 -58.6875 23.035156 -47.460938 20.757812 -41.777344 C 20.355469 -40.550781 19.195312 -39.871094 18.402344 -39.097656 C 17.96875 -40.273438 17.640625 -41.578125 17.332031 -42.640625 C 17.292969 -43.238281 17.726562 -43.988281 17.695312 -44.46875 C 19.078125 -58.398438 20.238281 -72.070312 21.5 -85.992188 C 21.476562 -86.351562 21.574219 -86.71875 21.550781 -87.078125 C 21.425781 -88.992188 20.113281 -90.714844 16.996094 -90.511719 C 12.5625 -90.222656 12.71875 -78.5625 11.8125 -72.125 C 8.476562 -49.285156 5.128906 -26.6875 2.210938 -3.03125 Z M 2.210938 -3.03125 "/></g></g></g><g fill="#edeced" fill-opacity="1"><g transform="translate(153.402789, 218.407088)"><g><path d="M 41.589844 -60.097656 C 40.625 -60.152344 39.546875 -60.085938 38.585938 -60.023438 C 28.523438 -59.371094 18.742188 -54.285156 9.699219 -52.734375 C 14.484375 -58.699219 20.046875 -63.875 25.585938 -69.40625 C 29.210938 -72.890625 32.8125 -76.734375 36.945312 -79.769531 C 37.140625 -76.777344 38.109375 -72.988281 39.546875 -73.082031 C 40.746094 -73.160156 43.753906 -80.574219 44.175781 -83.367188 C 44.335938 -84.582031 44.378906 -85.789062 44.308594 -86.867188 C 44.089844 -90.222656 42.730469 -92.660156 40.09375 -92.492188 C 39.015625 -92.421875 37.839844 -91.984375 36.457031 -91.050781 C 24.714844 -82.828125 13.710938 -70.683594 5.046875 -59.53125 C 3.050781 -56.875 0.285156 -51.28125 0.566406 -46.96875 C 0.789062 -43.492188 3.246094 -40.882812 8.519531 -41.226562 C 13.910156 -41.574219 20.203125 -44.75 24.214844 -45.972656 C 28.347656 -47.203125 34.238281 -49.152344 39.511719 -49.492188 C 42.148438 -49.664062 47.863281 -48.710938 47.925781 -47.75 C 48.027344 -46.195312 45.832031 -41.117188 44.308594 -38.613281 C 38.976562 -28.039062 29.5 -18.277344 19.605469 -11.257812 C 17.519531 -10.039062 15.105469 -8.320312 13.066406 -8.1875 C 12.347656 -8.140625 11.5 -8.207031 11.023438 -8.175781 C 10.976562 -8.894531 11.152344 -9.867188 11.089844 -10.828125 C 10.921875 -13.464844 9.480469 -17.101562 8.164062 -17.015625 C 6.964844 -16.9375 5.628906 -11.554688 5.992188 -5.925781 C 6.296875 -1.25 8.023438 3.089844 12.816406 2.78125 C 22.523438 2.148438 31.777344 -9.160156 37.828125 -16.050781 C 45.328125 -24.71875 53.234375 -36.421875 52.335938 -48.398438 C 51.917969 -54.871094 48.597656 -59.707031 41.589844 -60.097656 Z M 41.589844 -60.097656 "/></g></g></g><g fill="#edeced" fill-opacity="1"><g transform="translate(206.728256, 214.950332)"><g><path d="M 1.292969 -17.171875 C 1.9375 -7.226562 5.792969 -1.578125 11.066406 -1.921875 C 19.214844 -2.449219 25.203125 -17.757812 24.441406 -29.503906 C 24.144531 -34.054688 23.390625 -40.144531 19.816406 -43.28125 C 18.585938 -41.878906 17.867188 -41.832031 17.988281 -39.914062 C 18.167969 -37.160156 19.539062 -34.601562 19.699219 -32.082031 C 20.128906 -25.492188 17.988281 -17.652344 15.53125 -10.996094 C 15.140625 -9.644531 12.910156 -8.777344 11.421875 -7.597656 C 10.59375 -9.230469 9.023438 -11.175781 8.914062 -12.851562 C 8.449219 -20.042969 10.597656 -29.566406 15.019531 -35.628906 C 15.355469 -36.011719 15.539062 -36.867188 15.492188 -37.585938 C 15.363281 -39.625 13.253906 -40.570312 11.695312 -40.46875 C 4.386719 -39.996094 1.40625 -22.835938 1.292969 -17.171875 Z M 1.292969 -17.171875 "/></g></g></g><g fill="#edeced" fill-opacity="1"><g transform="translate(232.132722, 213.30352)"><g><path d="M 49.464844 -37.019531 C 49.105469 -36.996094 48.859375 -37.101562 48.738281 -37.09375 L 48.667969 -38.171875 C 48.457031 -41.410156 46.019531 -43.777344 44.941406 -43.707031 C 39.90625 -43.382812 38.382812 -39.070312 35.507812 -35.152344 C 34.402344 -33.636719 32.890625 -32.816406 31.679688 -31.054688 C 31.246094 -34.035156 29.804688 -39.597656 28.246094 -39.496094 C 24.890625 -39.277344 21.636719 -33.773438 18.332031 -30.910156 C 17.546875 -30.019531 16.109375 -29.925781 14.832031 -29.242188 C 14.632812 -30.429688 14.195312 -31.605469 14.125 -32.683594 C 13.988281 -34.839844 14.582031 -36.804688 14.457031 -38.722656 C 14.292969 -41.238281 13.398438 -43.949219 10.640625 -43.769531 C 8.003906 -43.597656 5.550781 -42.476562 5.152344 -39.324219 C 3.863281 -29.492188 2.679688 -19.910156 1.738281 -10.339844 L 1.789062 -9.503906 C 2.015625 -6.027344 3.953125 -3.988281 5.390625 -4.078125 C 7.308594 -4.203125 9.726562 -7.730469 10.582031 -11.277344 C 12.640625 -20.3125 18.097656 -28.972656 25.449219 -34.382812 C 25.75 -33.4375 26.292969 -32.511719 26.363281 -31.433594 C 26.601562 -27.71875 25.171875 -23.773438 25.414062 -20.058594 C 25.484375 -18.980469 26.273438 -17.949219 26.824219 -16.902344 C 27.988281 -17.457031 29.644531 -17.925781 30.292969 -19.050781 C 34.128906 -24.835938 37.089844 -31.164062 41.203125 -36.363281 C 41.652344 -36.875 42.730469 -36.945312 43.433594 -37.230469 C 43.601562 -36.519531 43.894531 -35.699219 43.941406 -34.976562 L 42.066406 -23.0625 C 41.203125 -17.832031 40.105469 -12.46875 39.378906 -7.003906 C 39.4375 -6.046875 40.59375 -4.917969 41.152344 -3.75 C 42.058594 -4.652344 43.566406 -5.472656 43.738281 -6.566406 C 47.003906 -15.5625 47.59375 -26.910156 49.464844 -37.019531 Z M 49.464844 -37.019531 "/></g></g></g><g fill="#edeced" fill-opacity="1"><g transform="translate(281.743379, 210.087573)"><g><path d="M 22.714844 -33.84375 C 23.089844 -33.625 23.226562 -33.394531 23.585938 -33.417969 C 22.605469 -22.523438 23.121094 -10.886719 23.339844 -0.0703125 C 23.425781 1.25 24.34375 2.394531 24.773438 3.449219 C 25.429688 2.441406 26.199219 1.308594 26.246094 0.222656 C 27.058594 -11.382812 27.761719 -22.859375 28.453125 -34.457031 C 28.511719 -35.421875 28.566406 -36.386719 28.503906 -37.347656 C 28.382812 -39.265625 27.632812 -41.503906 25.238281 -41.347656 C 22.601562 -41.175781 19.296875 -38.316406 17.757812 -36.046875 L 13.605469 -27.71875 C 13.179688 -26.847656 11.910156 -26.042969 11.109375 -25.390625 C 10.929688 -26.339844 10.371094 -27.507812 10.308594 -28.464844 C 10.121094 -31.34375 10.519531 -34.496094 10.332031 -37.371094 C 10.183594 -39.648438 9.207031 -41.75 6.210938 -41.558594 C 3.8125 -41.402344 2.230469 -39.855469 2.042969 -37.195312 L 1.710938 -31.15625 C 1.652344 -24.65625 1.253906 -17.769531 1.675781 -11.300781 C 1.820312 -9.023438 2.816406 -6.679688 5.570312 -6.859375 C 11.445312 -7.238281 15.628906 -20.628906 19.023438 -27.707031 C 20.089844 -29.820312 21.289062 -31.703125 22.714844 -33.84375 Z M 22.714844 -33.84375 "/></g></g></g><g fill="#edeced" fill-opacity="1"><g transform="translate(310.503143, 208.223258)"><g><path d="M -0.433594 -6.710938 C -0.195312 -6.726562 -0.0585938 -6.496094 -0.0585938 -6.496094 L -0.00390625 -5.65625 C 0.109375 -3.859375 2.039062 -1.9375 3.21875 -0.449219 C 4.84375 -1.398438 7.394531 -2.886719 7.84375 -5.203125 C 9.804688 -15.796875 11.75 -26.632812 13.464844 -37.335938 L 13.425781 -37.933594 C 13.253906 -40.570312 11.070312 -42.714844 8.3125 -42.535156 C 0.285156 -42.015625 2.402344 -29.757812 1.714844 -23.695312 C 1.007812 -17.875 0.398438 -12.421875 -0.433594 -6.710938 Z M 7.363281 -59.082031 C 8.121094 -58.527344 10.558594 -56.160156 11.277344 -56.207031 C 14.273438 -56.398438 16.109375 -63.378906 16.140625 -62.898438 C 16.023438 -64.695312 14.28125 -65.546875 12.007812 -65.398438 C 9.011719 -65.203125 7.203125 -63.402344 7.363281 -59.082031 Z M 7.363281 -59.082031 "/></g></g></g><g fill="#edeced" fill-opacity="1"><g transform="translate(326.201173, 207.205653)"><g><path d="M 19.0625 -41.910156 C 16.28125 -40.285156 12.742188 -39.214844 10.460938 -37.261719 C 4.078125 -31.792969 -0.261719 -22.605469 0.296875 -13.976562 C 0.539062 -10.261719 3.007812 -7.414062 6.605469 -7.648438 C 10.679688 -7.914062 14.519531 -11.773438 15.238281 -11.816406 C 17.277344 -11.949219 15.351562 -8.214844 18.964844 -4.476562 C 20.136719 -3.109375 21.148438 -2.332031 22.226562 -2.402344 C 25.101562 -2.589844 25.382812 -7.542969 25.582031 -11.886719 C 25.972656 -18.890625 26.472656 -26.023438 27.101562 -33.042969 C 27.171875 -33.769531 27.238281 -34.617188 27.199219 -35.214844 C 26.925781 -39.410156 24.253906 -41.644531 19.0625 -41.910156 Z M 19.738281 -31.484375 C 16.628906 -25.625 12.234375 -15.472656 8.398438 -15.226562 C 6.960938 -15.132812 6.222656 -17.25 6.183594 -17.851562 C 5.964844 -21.203125 10.890625 -28.746094 13.726562 -33.261719 C 14.289062 -33.898438 15.351562 -34.207031 16.429688 -34.277344 C 17.988281 -34.378906 18.15625 -33.667969 19.738281 -31.484375 Z M 19.738281 -31.484375 "/></g></g></g></svg>